<svg xmlns="http://www.w3.org/2000/svg" xmlns:xlink="http://www.w3.org/1999/xlink" version="1.1" width="1000" height="1000" viewBox="0 0 1000 1000" xml:space="preserve">
<desc>Created with Fabric.js 3.5.0</desc>
<defs>
</defs>
<rect x="0" y="0" width="100%" height="100%" fill="#ffffff"/>
<g transform="matrix(56.8182 0 0 56.8182 500.0001 500.0001)" id="683847">
<g style="" vector-effect="non-scaling-stroke">
		<g transform="matrix(1 0 0 1 3.197 -3.2537)">
<path style="stroke: none; stroke-width: 1; stroke-dasharray: none; stroke-linecap: butt; stroke-dashoffset: 0; stroke-linejoin: miter; stroke-miterlimit: 4; is-custom-font: none; font-file-url: none; fill: rgb(255,255,255); fill-rule: nonzero; opacity: 1;" transform=" translate(-11.197, -4.7463)" d="M 9.752 6.193 c 0.599 0.6 1.73 0.437 2.528 -0.362 c 0.798 -0.799 0.96 -1.932 0.362 -2.531 c -0.599 -0.6 -1.73 -0.438 -2.528 0.361 c -0.798 0.8 -0.96 1.933 -0.362 2.532 Z" stroke-linecap="round"/>
</g>
		<g transform="matrix(1 0 0 1 -0.0007 0.0008)">
<path style="stroke: none; stroke-width: 1; stroke-dasharray: none; stroke-linecap: butt; stroke-dashoffset: 0; stroke-linejoin: miter; stroke-miterlimit: 4; is-custom-font: none; font-file-url: none; fill: rgb(255,255,255); fill-rule: nonzero; opacity: 1;" transform=" translate(-7.9993, -8.0007)" d="M 15.811 3.312 c -0.363 1.534 -1.334 3.626 -3.64 6.218 l -0.24 2.408 a 2.56 2.56 0 0 1 -0.732 1.526 L 8.817 15.85 a 0.51 0.51 0 0 1 -0.867 -0.434 l 0.27 -1.899 c 0.04 -0.28 -0.013 -0.593 -0.131 -0.956 a 9.42 9.42 0 0 0 -0.249 -0.657 l -0.082 -0.202 c -0.815 -0.197 -1.578 -0.662 -2.191 -1.277 c -0.614 -0.615 -1.079 -1.379 -1.275 -2.195 l -0.203 -0.083 a 9.556 9.556 0 0 0 -0.655 -0.248 c -0.363 -0.119 -0.675 -0.172 -0.955 -0.132 l -1.896 0.27 A 0.51 0.51 0 0 1 0.15 7.17 l 2.382 -2.386 c 0.41 -0.41 0.947 -0.67 1.524 -0.734 h 0.006 l 2.4 -0.238 C 9.005 1.55 11.087 0.582 12.623 0.208 c 0.89 -0.217 1.59 -0.232 2.08 -0.188 c 0.244 0.023 0.435 0.06 0.57 0.093 c 0.067 0.017 0.12 0.033 0.16 0.045 c 0.184 0.06 0.279 0.13 0.351 0.295 l 0.029 0.073 a 3.475 3.475 0 0 1 0.157 0.721 c 0.055 0.485 0.051 1.178 -0.159 2.065 Z m -4.828 7.475 l 0.04 -0.04 l -0.107 1.081 a 1.536 1.536 0 0 1 -0.44 0.913 l -1.298 1.3 l 0.054 -0.38 c 0.072 -0.506 -0.034 -0.993 -0.172 -1.418 a 8.548 8.548 0 0 0 -0.164 -0.45 c 0.738 -0.065 1.462 -0.38 2.087 -1.006 Z M 5.205 5 c -0.625 0.626 -0.94 1.351 -1.004 2.09 a 8.497 8.497 0 0 0 -0.45 -0.164 c -0.424 -0.138 -0.91 -0.244 -1.416 -0.172 l -0.38 0.054 l 1.3 -1.3 c 0.245 -0.246 0.566 -0.401 0.91 -0.44 l 1.08 -0.107 l -0.04 0.039 Z m 9.406 -3.961 c -0.38 -0.034 -0.967 -0.027 -1.746 0.163 c -1.558 0.38 -3.917 1.496 -6.937 4.521 c -0.62 0.62 -0.799 1.34 -0.687 2.051 c 0.107 0.676 0.483 1.362 1.048 1.928 c 0.564 0.565 1.25 0.941 1.924 1.049 c 0.71 0.112 1.429 -0.067 2.048 -0.688 c 3.079 -3.083 4.192 -5.444 4.556 -6.987 c 0.183 -0.771 0.18 -1.345 0.138 -1.713 a 2.835 2.835 0 0 0 -0.045 -0.283 a 3.078 3.078 0 0 0 -0.3 -0.041 Z" stroke-linecap="round"/>
</g>
		<g transform="matrix(1 0 0 1 -3.5241 3.4553)">
<path style="stroke: none; stroke-width: 1; stroke-dasharray: none; stroke-linecap: butt; stroke-dashoffset: 0; stroke-linejoin: miter; stroke-miterlimit: 4; is-custom-font: none; font-file-url: none; fill: rgb(255,255,255); fill-rule: nonzero; opacity: 1;" transform=" translate(-4.4759, -11.4553)" d="M 7.009 12.139 a 7.632 7.632 0 0 1 -1.804 -1.352 A 7.568 7.568 0 0 1 3.794 8.86 c -1.102 0.992 -1.965 5.054 -1.839 5.18 c 0.125 0.126 3.936 -0.896 5.054 -1.902 Z" stroke-linecap="round"/>
</g>
</g>
</g>
</svg>